<svg viewBox="0 0 32 32" xmlns="http://www.w3.org/2000/svg"><g data-name="book, education, study, knowledge, literature, textbook, read, page, learning, information, text"><path d="M21 6H11a1 1 0 0 0-1 1v6a1 1 0 0 0 1 1h10a1 1 0 0 0 1-1V7a1 1 0 0 0-1-1Zm-1 6h-8V8h8ZM21 20H11a1 1 0 0 0 0 2h10a1 1 0 0 0 0-2Z" fill="#6563ff" class="fill-000000"></path><path d="M23 2H7a1 1 0 0 0-1 1v22a1 1 0 0 0 1 1h2v3a1 1 0 0 0 .42.81 1 1 0 0 0 .9.14l2.68-.9 2.68.9A1 1 0 0 0 17 29v-3h6a3 3 0 0 0 3-3V5a3 3 0 0 0-3-3Zm-8 25.61-1.68-.56a1 1 0 0 0-.64 0l-1.68.56V26h4ZM24 23a1 1 0 0 1-1 1H8V4h15a1 1 0 0 1 1 1Z" fill="#6563ff" class="fill-000000"></path></g></svg>